<svg width="27" height="29" viewBox="0 0 27 29" fill="none" xmlns="http://www.w3.org/2000/svg">
<path d="M13.5 0.5C11.5374 0.5 9.65523 1.2375 8.26746 2.55025C6.87969 3.86301 6.10005 5.64348 6.10005 7.5C6.10005 9.35652 6.87969 11.137 8.26746 12.4497C9.65523 13.7625 11.5374 14.5 13.5 14.5C15.4627 14.5 17.3449 13.7625 18.7326 12.4497C20.1204 11.137 20.9 9.35652 20.9 7.5C20.9 5.64348 20.1204 3.86301 18.7326 2.55025C17.3449 1.2375 15.4627 0.5 13.5 0.5ZM4.2667 16.25C3.77941 16.2479 3.29648 16.3369 2.84566 16.5119C2.39483 16.6868 1.98498 16.9443 1.63963 17.2695C1.29429 17.5948 1.02026 17.9813 0.833279 18.407C0.646296 18.8326 0.550044 19.289 0.550049 19.75C0.550049 22.7092 2.0911 24.9405 4.4998 26.3948C6.8715 27.8245 10.0683 28.5 13.5 28.5C16.9318 28.5 20.1286 27.8245 22.5003 26.3948C24.909 24.9423 26.45 22.7075 26.45 19.75C26.45 18.8217 26.0602 17.9315 25.3663 17.2751C24.6725 16.6187 23.7313 16.25 22.75 16.25H4.2667Z" fill="#E2E2E2"/>
</svg>
