<svg width="986" height="657" viewBox="0 0 986 657" fill="none" xmlns="http://www.w3.org/2000/svg">
<g clip-path="url(#clip0_373_54)">
<path d="M741.278 25.3552C733.832 29.5394 721.815 12.9894 719.091 21.0847C716.368 29.18 722.964 61.8442 726.367 69.6782C728.058 73.5721 730.449 77.1334 732.109 81.041C733.769 84.9486 734.659 89.4415 733.192 93.4254C730.639 100.358 722.213 103.179 718.035 109.272C713.17 116.37 715.135 125.929 717.41 134.228C719.37 141.381 721.459 148.599 725.233 154.984C729.007 161.369 734.697 166.928 741.807 169.041C750.859 171.73 760.534 168.534 769.26 164.925C777.65 161.455 785.95 157.522 793.086 151.909C800.222 146.296 806.176 138.845 808.67 130.116C811.799 119.165 809.185 107.182 803.768 97.1646C798.35 87.1472 790.336 78.8018 782.113 70.9228C768.264 57.6529 753.526 45.311 738.03 34.0072L741.278 25.3552Z" fill="#2F2E41"/>
<path d="M852.012 587.22L844.982 652.83L844.662 655.83L765.132 655.52L764.712 652.51L756.292 592.39L852.012 587.22Z" fill="#FFB6B6"/>
<path d="M730.412 652.38C730.412 653.37 730.402 654.37 730.392 655.38L647.832 655.06L647.562 652.05L642.472 594.98L727.842 584.63C727.842 584.63 730.592 614.9 730.412 652.38Z" fill="#FFB6B6"/>
<path d="M721.223 141.579C734.338 158.099 757.459 162.887 776.119 153.053C802.755 139.017 839.121 122.93 845.548 135.785C855.896 156.481 855.896 176.566 855.896 176.566L866.244 417.769C866.244 417.769 871.418 515.159 806.743 506.563C742.068 497.967 641.174 534.185 641.174 534.185L651.48 427.33L678.999 387.042L690.147 271.458L670.925 178.47L694.208 168.122C694.208 168.122 696.795 150.013 704.556 150.013C712.317 150.013 714.191 132.617 721.015 141.315C721.083 141.402 721.153 141.49 721.223 141.579Z" fill="#5CA7DE"/>
<path d="M861.532 655.9L844.662 655.83L765.132 655.52L754.782 655.48L754.182 652.47L738.182 571.7L735.682 652.4L735.592 655.4L730.392 655.38L647.832 655.06L641.912 655.03L641.892 652.03L641.542 594.99L641.222 542.17L641.172 534.18L641.182 534.17L665.902 484.06L673.112 469.44L674.592 466.44L689.032 437.17L819.692 419.08L821.692 418.8L857.192 413.89L857.452 428.44L857.602 436.7L858.132 466.44L858.192 469.44L858.252 472.87L861.472 652.89L861.532 655.9Z" fill="#2F2E41"/>
<path d="M759.877 133.907C789.715 133.907 813.904 109.718 813.904 79.8791C813.904 50.0405 789.715 25.8516 759.877 25.8516C730.038 25.8516 705.849 50.0405 705.849 79.8791C705.849 109.718 730.038 133.907 759.877 133.907Z" fill="#FFB6B6"/>
<path d="M820.782 164.494C808.172 182.482 801.723 204.707 802.746 226.651C788.449 219.726 778.799 205.093 775.515 189.549C772.231 174.006 774.736 157.685 780.014 142.701C780.067 142.551 780.12 142.401 780.173 142.252C788.186 119.76 780.741 94.6231 761.386 80.6418C748.331 71.2111 737.008 59.3797 728.318 45.8177C723.412 38.1613 719.242 28.5569 722.907 20.2348C726.285 12.5664 735.009 8.98227 743.038 6.5841C761.37 1.10804 780.849 -2.00791 799.666 1.45718C818.483 4.92227 836.597 15.7434 845.491 32.6843C854.384 49.6252 852.054 72.7452 837.619 85.304C842.172 86.776 845.393 91.6015 845.006 96.3706C844.62 101.14 840.663 105.383 835.933 106.102C839.019 105.993 840.841 110.058 839.74 112.943C838.64 115.829 835.802 117.621 833.094 119.106C829.237 121.222 824.962 123.434 824.946 128.974C824.939 131.195 825.731 133.351 827.025 135.156C830.161 139.531 835.225 141.501 840.099 143.351C829.79 146.388 821.569 155.602 819.723 166.19L820.782 164.494Z" fill="#2F2E41"/>
<path d="M590.399 143.593C588.924 128.125 595.711 114.825 605.555 113.889C615.399 112.952 624.572 124.731 626.045 140.206C626.718 146.379 625.903 152.623 623.668 158.417L629.087 224.037L598.24 225.923L596.172 161.034C592.883 155.765 590.903 149.784 590.399 143.593Z" fill="#FFB6B6"/>
<path d="M758.461 174.722C758.461 174.722 708.065 145.077 697.689 149.524C687.313 153.971 636.916 229.566 636.916 229.566L632.283 215.77L596.896 219.19C596.896 219.19 576.144 315.536 622.094 306.643C668.044 297.749 743.639 214.743 743.639 214.743L758.461 174.722Z" fill="#5CA7DE"/>
<path d="M290.895 334.007C290.895 334.007 319.35 317.324 327.013 332.793C334.676 348.262 405.471 532.797 405.471 532.797L359.851 541.679L290.895 334.007Z" fill="#5CA7DE"/>
<path d="M228.832 223.77L230.173 225.68C225.172 228.567 224.435 235.85 226.78 241.135C229.125 246.42 233.664 250.337 237.59 254.582C241.516 258.828 245.095 264.086 244.731 269.86C244.322 276.353 239.029 281.7 238.291 288.166C237.226 297.581 245.992 305.841 245.557 315.31C245.228 322.54 239.668 328.349 234.152 333.039C229.836 336.716 225.137 340.411 222.224 345.154C221.424 346.46 220.758 347.854 220.27 349.346C218.093 356.079 220.145 363.416 222.908 369.926C225.661 376.437 229.169 382.797 230.031 389.814C230.884 396.83 228.237 404.931 221.779 407.809C234.641 406.707 247.191 402.222 257.841 394.93C258.8 394.272 259.733 393.597 260.657 392.905C275.756 381.535 286.362 365.112 296.567 349.106C297.411 347.792 298.246 346.469 299.09 345.154C301.355 341.592 303.629 338.039 305.903 334.478C312.387 324.299 318.951 313.969 322.486 302.44C325.737 291.808 326.287 280.572 327.62 269.531C328.268 264.122 329.121 258.73 329.281 253.286C329.538 244.91 328.108 236.498 325.195 228.638C322.344 220.91 318.062 213.707 312.546 207.578C306.897 201.298 299.987 196.191 292.384 192.514C285.021 188.952 277.009 186.74 268.846 186.127C266.11 185.923 263.384 185.888 260.657 186.012C249.9 186.456 239.268 189.174 228.93 192.514C221.326 196.191 214.416 201.298 208.767 207.578C203.251 213.707 198.97 220.91 196.119 228.638C206.031 223.344 217.809 221.523 228.832 223.77Z" fill="#2F2E41"/>
<path d="M305.918 320.94L254.918 300.94L253.627 320.94L208.918 327.94L187.918 422.94L206.918 481.94L348.918 485.94L343.918 465.94C343.918 465.94 366.918 439.94 352.918 397.94L351.363 387.251C347.298 359.303 330.516 334.816 305.918 320.94Z" fill="#5CA7DE"/>
<path d="M277.533 300.041C302.551 300.041 322.832 279.76 322.832 254.742C322.832 229.724 302.551 209.443 277.533 209.443C252.515 209.443 232.234 229.724 232.234 254.742C232.234 279.76 252.515 300.041 277.533 300.041Z" fill="#A0616A"/>
<path d="M192.033 253.286C192.193 258.73 193.046 264.122 193.694 269.531C195.027 280.572 195.577 291.808 198.828 302.439C202.363 313.969 208.927 324.299 215.411 334.478C217.685 338.039 219.959 341.592 222.224 345.154C223.068 346.469 223.903 347.792 224.746 349.107C234.952 365.112 245.557 381.535 260.657 392.905C261.581 393.597 262.513 394.272 263.473 394.93C274.122 402.222 286.673 406.707 299.534 407.809C293.077 404.931 290.43 396.83 291.283 389.814C292.144 382.797 295.653 376.437 298.406 369.926C301.169 363.416 303.22 356.079 301.044 349.346C300.556 347.854 299.89 346.46 299.09 345.154C296.177 340.411 291.478 336.716 287.161 333.039C281.646 328.349 276.085 322.54 275.757 315.31C275.321 305.841 269.273 309.012 268.207 299.597C267.47 293.131 258.845 282.108 258.436 275.615C258.072 269.842 261.616 255.879 265.542 251.633C269.468 247.388 265.862 234.713 268.207 229.428C270.552 224.143 296.141 228.567 291.141 225.68L292.482 223.77C303.505 221.523 315.282 223.344 325.195 228.638C327.353 229.783 329.414 231.089 331.368 232.563C336.084 223.948 330.489 213.014 322.877 206.805C315.424 200.712 306.24 197.195 297.127 194.095C295.555 193.562 293.974 193.029 292.384 192.514C282.045 189.174 271.413 186.456 260.657 186.012C257.93 185.888 255.203 185.923 252.468 186.127C244.305 186.74 236.293 188.952 228.93 192.514C221.327 196.191 214.416 201.298 208.767 207.578C203.251 213.707 198.97 220.91 196.119 228.638C193.206 236.498 191.776 244.91 192.033 253.286Z" fill="#2F2E41"/>
<path d="M982.762 615.41L919.622 482.74C914.912 472.84 904.782 466.44 893.812 466.44H96.2925C93.2622 466.44 90.3125 466.91 87.5322 467.81C80.5024 470.06 74.5225 474.98 70.9824 481.74L3.30225 610.76C-1.37768 619.67 -1.06762 630.15 4.13233 638.77C9.32227 647.4 18.4324 652.58 28.5024 652.62L641.912 655.03L647.832 655.06L730.392 655.38L735.592 655.4L754.782 655.48L765.132 655.52L844.662 655.83L861.532 655.9L956.842 656.27H956.962C966.802 656.27 975.813 651.31 981.092 643C986.392 634.65 987.012 624.33 982.762 615.41Z" fill="white"/>
<path d="M982.762 615.41L919.622 482.74C914.912 472.84 904.782 466.44 893.812 466.44H96.2925C93.2622 466.44 90.3125 466.91 87.5322 467.81C80.5024 470.06 74.5225 474.98 70.9824 481.74L3.30225 610.76C-1.37768 619.67 -1.06762 630.15 4.13233 638.77C9.32227 647.4 18.4324 652.58 28.5024 652.62L641.912 655.03L647.832 655.06L730.392 655.38L735.592 655.4L754.782 655.48L765.132 655.52L844.662 655.83L861.532 655.9L956.842 656.27H956.962C966.802 656.27 975.813 651.31 981.092 643C986.392 634.65 987.012 624.33 982.762 615.41ZM978.562 641.39C973.832 648.84 965.772 653.27 956.962 653.27H956.852L861.472 652.89L844.982 652.83L764.712 652.51L754.182 652.47L735.682 652.4L730.412 652.38L647.562 652.05L641.892 652.03L28.5122 649.62C19.5024 649.58 11.3423 644.95 6.70239 637.23C2.05224 629.51 1.77246 620.13 5.9624 612.15L73.6423 483.14C76.0823 478.49 79.8022 474.81 84.2524 472.44C87.8823 470.5 92.0024 469.44 96.2925 469.44H893.812C903.632 469.44 912.692 475.17 916.912 484.03L980.052 616.69C983.862 624.69 983.302 633.92 978.562 641.39Z" fill="#3F3D56"/>
<path d="M283.418 562.44L434.418 507.44L358.918 477.074L208.418 516.44L283.418 562.44Z" fill="#F2F2F2"/>
<path d="M513.418 479.44L496.418 533.44L695.418 545.44L678.418 484.44L513.418 479.44Z" fill="#F2F2F2"/>
<path d="M278.845 488.677C292.837 490.064 303.462 498.408 302.578 507.313C301.694 516.217 289.635 522.308 275.639 520.918C270.04 520.439 264.638 518.627 259.883 515.633L200.675 509.005L204.377 481.287L262.353 490.763C267.605 488.76 273.26 488.045 278.845 488.677Z" fill="#A0616A"/>
<path d="M219.418 333.44L208.918 327.94C208.918 327.94 192.418 328.44 181.418 339.44C170.418 350.44 81.4182 476.44 81.4182 476.44C81.4182 476.44 59.4182 510.44 114.418 515.44C169.418 520.44 230.418 520.44 230.418 520.44L235.418 479.44L152.418 470.44L210.54 393.44L219.418 333.44Z" fill="#5CA7DE"/>
<path d="M804.947 468.419C793.076 477.234 778.905 478.254 773.296 470.698C767.687 463.143 772.765 449.874 784.641 441.057C789.337 437.471 794.823 435.06 800.642 434.028L851.411 397.313L868.133 421.505L816.308 455.131C813.636 460.404 809.74 464.96 804.947 468.419Z" fill="#FFB6B6"/>
<path d="M836.932 169.416C836.932 169.416 877.886 170.71 885.647 199.167C893.408 227.624 908.93 288.279 906.343 372.497C906.343 372.497 919.278 426.824 885.647 424.237L839.081 444.933L808.036 403.541L833.906 372.497L836.932 169.416Z" fill="#5CA7DE"/>
</g>
<defs>
<clipPath id="clip0_373_54">
<rect width="985.56" height="656.27" fill="white"/>
</clipPath>
</defs>
</svg>
