<svg width="986" height="657" viewBox="0 0 986 657" fill="none" xmlns="http://www.w3.org/2000/svg">
<g clip-path="url(#clip0_373_95)">
<path d="M741.278 25.8552C733.832 30.0394 721.815 13.4894 719.091 21.5847C716.368 29.68 722.964 62.3442 726.367 70.1782C728.058 74.0721 730.449 77.6334 732.109 81.541C733.769 85.4486 734.659 89.9415 733.192 93.9254C730.639 100.858 722.213 103.679 718.035 109.772C713.17 116.87 715.135 126.429 717.41 134.728C719.37 141.881 721.459 149.099 725.233 155.484C729.007 161.869 734.697 167.428 741.807 169.541C750.859 172.23 760.534 169.034 769.26 165.425C777.65 161.955 785.95 158.022 793.086 152.409C800.222 146.796 806.176 139.345 808.67 130.616C811.799 119.665 809.185 107.682 803.768 97.6646C798.35 87.6472 790.336 79.3018 782.113 71.4228C768.264 58.1529 753.526 45.811 738.03 34.5072L741.278 25.8552Z" fill="#2F2E41"/>
<path d="M852.012 587.72L844.982 653.33L844.662 656.33L765.132 656.02L764.712 653.01L756.292 592.89L852.012 587.72Z" fill="#FFB6B6"/>
<path d="M730.412 652.88C730.412 653.87 730.402 654.87 730.392 655.88L647.832 655.56L647.562 652.55L642.472 595.48L727.842 585.13C727.842 585.13 730.592 615.4 730.412 652.88Z" fill="#FFB6B6"/>
<path d="M721.223 142.079C734.338 158.599 757.459 163.387 776.119 153.553C802.755 139.517 839.121 123.43 845.548 136.285C855.896 156.981 855.896 177.066 855.896 177.066L866.244 418.269C866.244 418.269 871.418 515.659 806.743 507.063C742.068 498.467 641.174 534.685 641.174 534.685L651.48 427.83L678.999 387.542L690.147 271.958L670.925 178.97L694.208 168.622C694.208 168.622 696.795 150.513 704.556 150.513C712.317 150.513 714.191 133.117 721.015 141.815C721.083 141.902 721.153 141.99 721.223 142.079Z" fill="#FAD4D8"/>
<path d="M861.532 656.4L844.662 656.33L765.132 656.02L754.782 655.98L754.182 652.97L738.182 572.2L735.682 652.9L735.592 655.9L730.392 655.88L647.832 655.56L641.912 655.53L641.892 652.53L641.542 595.49L641.222 542.67L641.172 534.68L641.182 534.67L665.902 484.56L673.112 469.94L674.592 466.94L689.032 437.67L819.692 419.58L821.692 419.3L857.192 414.39L857.452 428.94L857.602 437.2L858.132 466.94L858.192 469.94L858.252 473.37L861.472 653.39L861.532 656.4Z" fill="#2F2E41"/>
<path d="M759.877 134.407C789.715 134.407 813.904 110.218 813.904 80.3791C813.904 50.5405 789.715 26.3516 759.877 26.3516C730.038 26.3516 705.849 50.5405 705.849 80.3791C705.849 110.218 730.038 134.407 759.877 134.407Z" fill="#FFB6B6"/>
<path d="M820.782 164.994C808.172 182.982 801.723 205.207 802.746 227.151C788.449 220.226 778.799 205.593 775.515 190.049C772.231 174.506 774.736 158.185 780.014 143.201C780.067 143.051 780.12 142.901 780.173 142.752C788.186 120.26 780.741 95.1231 761.386 81.1418C748.331 71.7111 737.008 59.8797 728.318 46.3177C723.412 38.6613 719.242 29.0569 722.907 20.7348C726.285 13.0664 735.009 9.48227 743.038 7.0841C761.37 1.60804 780.849 -1.50791 799.666 1.95718C818.483 5.42227 836.597 16.2434 845.491 33.1843C854.384 50.1252 852.054 73.2452 837.619 85.804C842.172 87.276 845.393 92.1015 845.006 96.8706C844.62 101.64 840.663 105.883 835.933 106.602C839.019 106.493 840.841 110.558 839.74 113.443C838.64 116.329 835.802 118.121 833.094 119.606C829.237 121.722 824.962 123.934 824.946 129.474C824.939 131.695 825.731 133.851 827.025 135.656C830.161 140.031 835.225 142.001 840.099 143.851C829.79 146.888 821.569 156.102 819.723 166.69L820.782 164.994Z" fill="#2F2E41"/>
<path d="M590.399 144.093C588.924 128.625 595.711 115.325 605.555 114.389C615.399 113.452 624.572 125.231 626.045 140.706C626.718 146.879 625.903 153.123 623.668 158.917L629.087 224.537L598.24 226.423L596.172 161.534C592.883 156.265 590.903 150.284 590.399 144.093Z" fill="#FFB6B6"/>
<path d="M758.461 175.222C758.461 175.222 708.065 145.577 697.689 150.024C687.313 154.471 636.916 230.066 636.916 230.066L632.283 216.27L596.895 219.69C596.895 219.69 576.144 316.036 622.094 307.143C668.044 298.249 743.639 215.243 743.639 215.243L758.461 175.222Z" fill="#FAD4D8"/>
<path d="M290.895 334.507C290.895 334.507 319.35 317.824 327.013 333.293C334.676 348.762 405.471 533.297 405.471 533.297L359.851 542.179L290.895 334.507Z" fill="#FAD4D8"/>
<path d="M228.832 224.27L230.173 226.18C225.172 229.067 224.435 236.35 226.78 241.635C229.125 246.92 233.664 250.837 237.59 255.082C241.516 259.328 245.095 264.586 244.731 270.36C244.322 276.853 239.029 282.2 238.291 288.666C237.226 298.081 245.992 306.341 245.557 315.81C245.228 323.04 239.668 328.849 234.152 333.539C229.836 337.216 225.137 340.911 222.224 345.654C221.424 346.96 220.758 348.354 220.27 349.846C218.093 356.579 220.145 363.916 222.908 370.426C225.661 376.937 229.169 383.297 230.031 390.314C230.884 397.33 228.237 405.431 221.779 408.309C234.641 407.207 247.191 402.722 257.841 395.43C258.8 394.772 259.733 394.097 260.657 393.405C275.756 382.035 286.362 365.612 296.567 349.606C297.411 348.292 298.246 346.969 299.09 345.654C301.355 342.092 303.629 338.539 305.903 334.978C312.387 324.799 318.951 314.469 322.486 302.94C325.737 292.308 326.287 281.072 327.62 270.031C328.268 264.622 329.121 259.23 329.281 253.786C329.538 245.41 328.108 236.998 325.195 229.138C322.344 221.41 318.062 214.207 312.546 208.078C306.897 201.798 299.987 196.691 292.384 193.014C285.021 189.452 277.009 187.24 268.846 186.627C266.11 186.423 263.384 186.388 260.657 186.512C249.9 186.956 239.268 189.674 228.93 193.014C221.326 196.691 214.416 201.798 208.767 208.078C203.251 214.207 198.97 221.41 196.119 229.138C206.031 223.844 217.809 222.023 228.832 224.27Z" fill="#2F2E41"/>
<path d="M305.918 321.44L254.918 301.44L253.627 321.44L208.918 328.44L187.918 423.44L206.918 482.44L348.918 486.44L343.918 466.44C343.918 466.44 366.918 440.44 352.918 398.44L351.363 387.751C347.298 359.803 330.516 335.316 305.918 321.44Z" fill="#FAD4D8"/>
<path d="M277.533 300.541C302.551 300.541 322.832 280.26 322.832 255.242C322.832 230.224 302.551 209.943 277.533 209.943C252.515 209.943 232.234 230.224 232.234 255.242C232.234 280.26 252.515 300.541 277.533 300.541Z" fill="#A0616A"/>
<path d="M192.033 253.786C192.193 259.23 193.046 264.622 193.694 270.031C195.027 281.072 195.577 292.308 198.828 302.939C202.363 314.469 208.927 324.799 215.411 334.978C217.685 338.539 219.959 342.092 222.224 345.654C223.068 346.969 223.903 348.292 224.746 349.607C234.952 365.612 245.557 382.035 260.657 393.405C261.581 394.097 262.513 394.772 263.473 395.43C274.122 402.722 286.673 407.207 299.534 408.309C293.077 405.431 290.43 397.33 291.283 390.314C292.144 383.297 295.653 376.937 298.406 370.426C301.169 363.916 303.22 356.579 301.044 349.846C300.556 348.354 299.89 346.96 299.09 345.654C296.177 340.911 291.478 337.216 287.161 333.539C281.646 328.849 276.085 323.04 275.757 315.81C275.321 306.341 269.273 309.512 268.207 300.097C267.47 293.631 258.845 282.608 258.436 276.115C258.072 270.342 261.616 256.379 265.542 252.133C269.468 247.888 265.862 235.213 268.207 229.928C270.552 224.643 296.141 229.067 291.141 226.18L292.482 224.27C303.505 222.023 315.282 223.844 325.195 229.138C327.353 230.283 329.414 231.589 331.368 233.063C336.084 224.448 330.489 213.514 322.877 207.305C315.424 201.212 306.24 197.695 297.127 194.595C295.555 194.062 293.974 193.529 292.384 193.014C282.045 189.674 271.413 186.956 260.657 186.512C257.93 186.388 255.203 186.423 252.468 186.627C244.305 187.24 236.293 189.452 228.93 193.014C221.327 196.691 214.416 201.798 208.767 208.078C203.251 214.207 198.97 221.41 196.119 229.138C193.206 236.998 191.776 245.41 192.033 253.786Z" fill="#2F2E41"/>
<path d="M982.762 615.91L919.622 483.24C914.912 473.34 904.782 466.94 893.812 466.94H96.2925C93.2622 466.94 90.3125 467.41 87.5322 468.31C80.5024 470.56 74.5225 475.48 70.9824 482.24L3.30225 611.26C-1.37768 620.17 -1.06762 630.65 4.13233 639.27C9.32227 647.9 18.4324 653.08 28.5024 653.12L641.912 655.53L647.832 655.56L730.392 655.88L735.592 655.9L754.782 655.98L765.132 656.02L844.662 656.33L861.532 656.4L956.842 656.77H956.962C966.802 656.77 975.813 651.81 981.092 643.5C986.392 635.15 987.012 624.83 982.762 615.91Z" fill="white"/>
<path d="M982.762 615.91L919.622 483.24C914.912 473.34 904.782 466.94 893.812 466.94H96.2925C93.2622 466.94 90.3125 467.41 87.5322 468.31C80.5024 470.56 74.5225 475.48 70.9824 482.24L3.30225 611.26C-1.37768 620.17 -1.06762 630.65 4.13233 639.27C9.32227 647.9 18.4324 653.08 28.5024 653.12L641.912 655.53L647.832 655.56L730.392 655.88L735.592 655.9L754.782 655.98L765.132 656.02L844.662 656.33L861.532 656.4L956.842 656.77H956.962C966.802 656.77 975.813 651.81 981.092 643.5C986.392 635.15 987.012 624.83 982.762 615.91ZM978.562 641.89C973.832 649.34 965.772 653.77 956.962 653.77H956.852L861.472 653.39L844.982 653.33L764.712 653.01L754.182 652.97L735.682 652.9L730.412 652.88L647.562 652.55L641.892 652.53L28.5122 650.12C19.5024 650.08 11.3423 645.45 6.70239 637.73C2.05224 630.01 1.77246 620.63 5.9624 612.65L73.6423 483.64C76.0823 478.99 79.8022 475.31 84.2524 472.94C87.8823 471 92.0024 469.94 96.2925 469.94H893.812C903.632 469.94 912.692 475.67 916.912 484.53L980.052 617.19C983.862 625.19 983.302 634.42 978.562 641.89Z" fill="#3F3D56"/>
<path d="M283.418 562.94L434.418 507.94L358.918 477.574L208.418 516.94L283.418 562.94Z" fill="#F2F2F2"/>
<path d="M513.418 479.94L496.418 533.94L695.418 545.94L678.418 484.94L513.418 479.94Z" fill="#F2F2F2"/>
<path d="M278.845 489.177C292.837 490.564 303.462 498.908 302.578 507.813C301.694 516.717 289.635 522.808 275.639 521.418C270.04 520.939 264.638 519.127 259.883 516.133L200.675 509.505L204.377 481.787L262.353 491.263C267.605 489.26 273.26 488.545 278.845 489.177Z" fill="#A0616A"/>
<path d="M219.418 333.94L208.918 328.44C208.918 328.44 192.418 328.94 181.418 339.94C170.418 350.94 81.4182 476.94 81.4182 476.94C81.4182 476.94 59.4182 510.94 114.418 515.94C169.418 520.94 230.418 520.94 230.418 520.94L235.418 479.94L152.418 470.94L210.54 393.94L219.418 333.94Z" fill="#FAD4D8"/>
<path d="M804.947 468.919C793.076 477.734 778.905 478.754 773.296 471.198C767.687 463.643 772.765 450.374 784.641 441.557C789.337 437.971 794.823 435.56 800.642 434.528L851.411 397.813L868.133 422.005L816.308 455.631C813.636 460.904 809.74 465.46 804.947 468.919Z" fill="#FFB6B6"/>
<path d="M836.932 169.916C836.932 169.916 877.886 171.21 885.647 199.667C893.408 228.124 908.93 288.779 906.343 372.997C906.343 372.997 919.278 427.324 885.647 424.737L839.081 445.433L808.036 404.041L833.906 372.997L836.932 169.916Z" fill="#FAD4D8"/>
</g>
<defs>
<clipPath id="clip0_373_95">
<rect width="985.56" height="656.27" fill="white" transform="translate(0 0.5)"/>
</clipPath>
</defs>
</svg>
